<svg viewBox="0 0 480.006 480" xmlns="http://www.w3.org/2000/svg"><path d="m160.003906 176.007812v48l40 16h80l40-16v-48h-32v24h-32v-24h-32v24h-32v-24zm0 0" fill="#74d5e8"/><path d="m144.003906 472.007812h192l-16-32h-160zm0 0" fill="#1abbdb"/><path d="m280.003906 240.007812h-80l-8 128h96zm0 0" fill="#1cc8eb"/><path d="m144.003906 428.007812c0 6.625 5.371094 12 12 12h168c6.625 0 12-5.375 12-12 0-6.628906-5.375-12-12-12h-168c-6.628906 0-12 5.371094-12 12zm0 0" fill="#74d5e8"/><path d="m160.003906 416.007812 12.359375-37.058593c2.175781-6.53125 8.285157-10.9375 15.167969-10.941407h104.9375c6.894531-.011718 13.019531 4.398438 15.199219 10.941407l12.335937 37.058593" fill="#74d5e8"/><path d="m280.507812 248.007812-.503906-8h-80l-.496094 8zm0 0" fill="#1abbdb"/><path d="m198.507812 264.007812h83l-.503906-8h-82zm0 0" fill="#1abbdb"/><path d="m197.003906 288.007812h86l-.496094-8h-85zm0 0" fill="#1abbdb"/><path d="m160.003906 224.007812 40 16h80l40-16zm0 0" fill="#70cee0"/><path d="m128.003906 464.007812h224c4.417969 0 8 3.578126 8 8 0 4.417969-3.582031 8-8 8h-224c-4.417968 0-8-3.582031-8-8 0-4.421874 3.582032-8 8-8zm0 0" fill="#74d5e8"/><g fill="#ffce6b"><path d="m264.003906 64.007812h16v56h-16zm0 0"/><path d="m264.003906 136.007812h16v16h-16zm0 0"/><path d="m200.003906 64.007812h16v56h-16zm0 0"/><path d="m200.003906 136.007812h16v16h-16zm0 0"/><path d="m152.003906 128.007812h-16v-8h-56v-16h64c4.417969 0 8 3.578126 8 8zm0 0"/><path d="m136.003906 144.007812h16v16h-16zm0 0"/><path d="m88.003906 224.007812h-16v-40h-8v-16h16c4.417969 0 8 3.578126 8 8zm0 0"/><path d="m408.003906 184.007812h-16v-64c0-4.421874 3.582032-8 8-8h16v16h-8zm0 0"/></g><path d="m235.003906 1.757812-40 32 10 12.496094 27-21.601562v127.355468h16v-127.355468l27 21.601562 10-12.496094-40-32c-2.921875-2.339843-7.078125-2.339843-10 0zm0 0" fill="#ffb41f"/><path d="m112.003906 136.007812h-87.351562l21.597656-27-12.496094-10-32 40c-2.339844 2.921876-2.339844 7.074219 0 10l32 40 12.496094-10-21.597656-27h79.351562v72h16v-80c0-4.421874-3.582031-8-8-8zm0 0" fill="#ffb41f"/><path d="m478.25 83.007812-32-40-12.496094 10 21.601563 27h-87.351563c-4.417968 0-8 3.578126-8 8v96h16v-88h79.351563l-21.601563 27 12.496094 10 32-40c2.339844-2.925781 2.339844-7.078124 0-10zm0 0" fill="#ffb41f"/><path d="m328.003906 112.007812h16v16h-16zm0 0" fill="#ffce6b"/><path d="m344.003906 96.007812h-16v-40c0-4.421874 3.582032-8 8-8h64v16h-56zm0 0" fill="#ffce6b"/><path d="m127.546875 396.511719c-33.589844-49.378907-31.039063-114.890625 6.289063-161.503907l12.488281 10c-32.925781 41.132813-35.164063 98.933594-5.519531 142.496094zm0 0" fill="#1cc8eb"/><path d="m352.460938 396.511719-13.257813-9.007813c29.632813-43.570312 27.382813-101.367187-5.550781-142.496094l12.488281-10c37.324219 46.613282 39.875 112.125 6.285156 161.503907zm0 0" fill="#1cc8eb"/><path d="m192.003906 264.007812h96c4.417969 0 8 3.578126 8 8 0 4.417969-3.582031 8-8 8h-96c-4.417968 0-8-3.582031-8-8 0-4.421874 3.582032-8 8-8zm0 0" fill="#74d5e8"/><path d="m192.507812 360.007812-.503906 8h96l-.496094-8zm0 0" fill="#1abbdb"/></svg>