<svg viewBox="-4 0 472 472" xmlns="http://www.w3.org/2000/svg"><path d="m424 216c0-26.507812-21.488281-48-48-48h-104v-120h168c13.253906 0 24 10.746094 24 24v136c-.398438 11.304688-2.765625 22.453125-7 32.945312-7.121094 18.710938-25.066406 31.070313-45.085938 31.054688h-11.914062l15.769531-26.28125c5.386719-8.976562 8.230469-19.25 8.230469-29.71875zm0 0" fill="#1cc8eb"/><path d="m96 272c0-1.296875-32-16-31.816406-35.929688.199218-20.871093 20.617187-36.070312 41.535156-36.070312h142.28125c13.253906 0 24-10.746094 24-24v-152c0-13.253906-10.746094-24-24-24h-224c-13.253906 0-24 10.746094-24 24v176c-.0117188 5.082031.3125 10.160156.976562 15.199219 4.019532 27.777343 26.371094 49.289062 54.28125 52.242187zm0 0" fill="#c9dfff"/><path d="m224 472v-32c0-17.671875-14.328125-32-32-32s-32-14.328125-32-32v-4.183594c33.0625-11.6875 52.894531-45.496094 46.964844-80.058594-5.929688-34.5625-35.898438-59.824218-70.964844-59.824218s-65.03125 25.261718-70.960938 59.824218c-5.929687 34.5625 13.898438 68.371094 46.960938 80.058594v4.183594c0 17.671875-14.328125 32-32 32s-32 14.328125-32 32v32zm0 0" fill="#fff5e0"/><path d="m440 472v-32c0-17.671875-14.328125-40-32-40s-32-6.328125-32-24v-4.183594c33.0625-11.6875 52.894531-45.496094 46.964844-80.058594-5.929688-34.5625-35.898438-59.824218-70.964844-59.824218s-65.03125 25.261718-70.960938 59.824218c-5.929687 34.5625 13.898438 68.371094 46.960938 80.058594v4.183594c0 17.671875-14.328125 24-32 24s-32 22.328125-32 40v32zm0 0" fill="#fff5e0"/><path d="m136 232c-39.765625 0-72 32.234375-72 72h32l24-16 24 16h64c0-39.765625-32.234375-72-72-72zm0 0" fill="#a3771d"/><path d="m360 232h-96c-.003906 17.832031 7.460938 34.851562 20.585938 46.929688 11.792968 10.972656 27.304687 17.070312 43.414062 17.070312h95.832031c.039063-16.957031-6.667969-33.230469-18.644531-45.238281-11.972656-12.003907-28.230469-18.753907-45.1875-18.761719zm0 0" fill="#a3771d"/><path d="m272 48h8v120h-8zm0 0" fill="#18abc9"/><g fill="#8c8c8c"><path d="m40 32h152c4.417969 0 8 3.582031 8 8s-3.582031 8-8 8h-152c-4.417969 0-8-3.582031-8-8s3.582031-8 8-8zm0 0"/><path d="m40 64h32c4.417969 0 8 3.582031 8 8s-3.582031 8-8 8h-32c-4.417969 0-8-3.582031-8-8s3.582031-8 8-8zm0 0"/><path d="m104 64h104c4.417969 0 8 3.582031 8 8s-3.582031 8-8 8h-104c-4.417969 0-8-3.582031-8-8s3.582031-8 8-8zm0 0"/><path d="m40 96c4.417969 0 8 3.582031 8 8s-3.582031 8-8 8-8-3.582031-8-8 3.582031-8 8-8zm0 0"/><path d="m72 96h48c4.417969 0 8 3.582031 8 8s-3.582031 8-8 8h-48c-4.417969 0-8-3.582031-8-8s3.582031-8 8-8zm0 0"/><path d="m152 96h56c4.417969 0 8 3.582031 8 8s-3.582031 8-8 8h-56c-4.417969 0-8-3.582031-8-8s3.582031-8 8-8zm0 0"/><path d="m336 88h96c4.417969 0 8 3.582031 8 8s-3.582031 8-8 8h-96c-4.417969 0-8-3.582031-8-8s3.582031-8 8-8zm0 0"/><path d="m304 120h40c4.417969 0 8 3.582031 8 8s-3.582031 8-8 8h-40c-4.417969 0-8-3.582031-8-8s3.582031-8 8-8zm0 0"/><path d="m376 120h56c4.417969 0 8 3.582031 8 8s-3.582031 8-8 8h-56c-4.417969 0-8-3.582031-8-8s3.582031-8 8-8zm0 0"/><path d="m304 88c4.417969 0 8 3.582031 8 8s-3.582031 8-8 8-8-3.582031-8-8 3.582031-8 8-8zm0 0"/></g><path d="m192 408c-6.472656.003906-12.789062-1.964844-18.113281-5.648438l-37.886719 21.648438-37.886719-21.648438c-5.324219 3.683594-11.640625 5.652344-18.113281 5.648438-17.671875 0-32 14.328125-32 32v32h176v-32c0-17.671875-14.328125-32-32-32zm0 0" fill="#c9dfff"/><path d="m408 400c-4.007812.023438-8.007812-.371094-11.9375-1.183594l-44.0625 25.183594-44.0625-25.183594c-3.925781.8125-7.929688 1.207032-11.9375 1.183594-17.671875 0-32 22.328125-32 40v32h176v-32c0-17.671875-14.328125-40-32-40zm0 0" fill="#1cc8eb"/></svg>