<svg id="img-header" xmlns="http://www.w3.org/2000/svg" width="483.493" height="464.63" viewBox="0 0 483.493 464.63">
  <path id="Caminho_1" data-name="Caminho 1" d="M221,0c56.633,0,71.514,154.638,71.514,154.638S444.03,143.205,444.03,208.627C444.03,330.682,343.055,442,221,442S13.864,370.738,13.864,248.683,98.945,0,221,0Z" transform="translate(475.744 12.954) rotate(89)" fill="#44cf60"/>
  <path id="Caminho_2" data-name="Caminho 2" d="M221,0c56.633,0,71.514,154.638,71.514,154.638S444.03,143.205,444.03,208.627C444.03,330.682,343.055,442,221,442S13.864,370.738,13.864,248.683,98.945,0,221,0Z" transform="translate(441.691 -13.862) rotate(89)" fill="#dceee0"/>
</svg>
