<svg id="Componente_3_1" data-name="Componente 3 – 1" xmlns="http://www.w3.org/2000/svg" xmlns:xlink="http://www.w3.org/1999/xlink" width="2497" height="87" viewBox="0 0 2497 87">
  <defs>
    <clipPath id="clip-path">
      <rect width="2497" height="87" fill="none"/>
    </clipPath>
  </defs>
  <g id="Repetição_de_grade_1" data-name="Repetição de grade 1" clip-path="url(#clip-path)">
    <g transform="translate(-418 -509)">
      <g id="Retângulo_5" data-name="Retângulo 5" transform="translate(418 509)" fill="#fff" stroke="#707070" stroke-width="1">
        <rect width="399" height="31" rx="15.5" stroke="none"/>
        <rect x="0.5" y="0.5" width="398" height="30" rx="15" fill="none"/>
      </g>
    </g>
    <g transform="translate(1 -509)">
      <g id="Retângulo_5-2" data-name="Retângulo 5" transform="translate(418 509)" fill="#fff" stroke="#707070" stroke-width="1">
        <rect width="399" height="31" rx="15.5" stroke="none"/>
        <rect x="0.5" y="0.5" width="398" height="30" rx="15" fill="none"/>
      </g>
    </g>
    <g transform="translate(420 -509)">
      <g id="Retângulo_5-3" data-name="Retângulo 5" transform="translate(418 509)" fill="#fff" stroke="#707070" stroke-width="1">
        <rect width="399" height="31" rx="15.5" stroke="none"/>
        <rect x="0.5" y="0.5" width="398" height="30" rx="15" fill="none"/>
      </g>
    </g>
    <g transform="translate(839 -509)">
      <g id="Retângulo_5-4" data-name="Retângulo 5" transform="translate(418 509)" fill="#fff" stroke="#707070" stroke-width="1">
        <rect width="399" height="31" rx="15.5" stroke="none"/>
        <rect x="0.5" y="0.5" width="398" height="30" rx="15" fill="none"/>
      </g>
    </g>
    <g transform="translate(1258 -509)">
      <g id="Retângulo_5-5" data-name="Retângulo 5" transform="translate(418 509)" fill="#fff" stroke="#707070" stroke-width="1">
        <rect width="399" height="31" rx="15.5" stroke="none"/>
        <rect x="0.5" y="0.5" width="398" height="30" rx="15" fill="none"/>
      </g>
    </g>
    <g transform="translate(1677 -509)">
      <g id="Retângulo_5-6" data-name="Retângulo 5" transform="translate(418 509)" fill="#fff" stroke="#707070" stroke-width="1">
        <rect width="399" height="31" rx="15.5" stroke="none"/>
        <rect x="0.5" y="0.5" width="398" height="30" rx="15" fill="none"/>
      </g>
    </g>
    <g transform="translate(-418 -458)">
      <g id="Retângulo_5-7" data-name="Retângulo 5" transform="translate(418 509)" fill="#fff" stroke="#707070" stroke-width="1">
        <rect width="399" height="31" rx="15.5" stroke="none"/>
        <rect x="0.5" y="0.5" width="398" height="30" rx="15" fill="none"/>
      </g>
    </g>
    <g transform="translate(1 -458)">
      <g id="Retângulo_5-8" data-name="Retângulo 5" transform="translate(418 509)" fill="#fff" stroke="#707070" stroke-width="1">
        <rect width="399" height="31" rx="15.5" stroke="none"/>
        <rect x="0.5" y="0.5" width="398" height="30" rx="15" fill="none"/>
      </g>
    </g>
    <g transform="translate(420 -458)">
      <g id="Retângulo_5-9" data-name="Retângulo 5" transform="translate(418 509)" fill="#fff" stroke="#707070" stroke-width="1">
        <rect width="399" height="31" rx="15.5" stroke="none"/>
        <rect x="0.5" y="0.5" width="398" height="30" rx="15" fill="none"/>
      </g>
    </g>
    <g transform="translate(839 -458)">
      <g id="Retângulo_5-10" data-name="Retângulo 5" transform="translate(418 509)" fill="#fff" stroke="#707070" stroke-width="1">
        <rect width="399" height="31" rx="15.5" stroke="none"/>
        <rect x="0.5" y="0.5" width="398" height="30" rx="15" fill="none"/>
      </g>
    </g>
    <g transform="translate(1258 -458)">
      <g id="Retângulo_5-11" data-name="Retângulo 5" transform="translate(418 509)" fill="#fff" stroke="#707070" stroke-width="1">
        <rect width="399" height="31" rx="15.5" stroke="none"/>
        <rect x="0.5" y="0.5" width="398" height="30" rx="15" fill="none"/>
      </g>
    </g>
    <g transform="translate(1677 -458)">
      <g id="Retângulo_5-12" data-name="Retângulo 5" transform="translate(418 509)" fill="#fff" stroke="#707070" stroke-width="1">
        <rect width="399" height="31" rx="15.5" stroke="none"/>
        <rect x="0.5" y="0.5" width="398" height="30" rx="15" fill="none"/>
      </g>
    </g>
  </g>
</svg>
