<?xml version="1.0" encoding="iso-8859-1"?>
<!-- Generator: Adobe Illustrator 19.0.0, SVG Export Plug-In . SVG Version: 6.00 Build 0)  -->
<svg xmlns="http://www.w3.org/2000/svg" xmlns:xlink="http://www.w3.org/1999/xlink" version="1.1" id="Capa_1" x="0px" y="0px" viewBox="0 0 512 512" style="enable-background:new 0 0 512 512;" xml:space="preserve">
<polygon style="fill:#FF4C4C;" points="324.839,442.938 187.149,442.935 202.601,391.404 309.39,391.406 "/>
<polygon style="fill:#F33939;" points="309.39,391.406 272.103,391.405 287.552,442.937 324.839,442.938 "/>
<path style="fill:#FFB124;" d="M480.508,396.419l-449.026-0.011C14.095,396.407,0,382.311,0,364.923L0.007,70.031  c0-17.388,14.096-31.483,31.484-31.483l449.026,0.011c17.388,0,31.483,14.096,31.483,31.484l-0.007,294.893  C511.992,382.324,497.896,396.419,480.508,396.419z"/>
<path style="fill:#FF901E;" d="M480.517,38.56l-38.104-0.001c17.388,0,31.483,14.096,31.483,31.484l-0.007,294.893  c0,17.388-14.096,31.483-31.484,31.483l38.104,0.001c17.388,0,31.484-14.095,31.484-31.483L512,70.044  C512,52.656,497.905,38.56,480.517,38.56z"/>
<path style="fill:#FFFCFD;" d="M473.89,325.024l0.006-240.41c0-5.954-4.826-10.779-10.779-10.779l-414.226-0.01  c-5.954,0-10.779,4.826-10.779,10.779l-0.006,240.41c0,5.711,4.63,10.342,10.342,10.342l415.103,0.01  C469.259,335.366,473.889,330.735,473.89,325.024z"/>
<path style="fill:#E6E6E6;" d="M463.117,73.835l-38.104-0.001c5.953,0,10.779,4.827,10.779,10.779l-0.006,240.41  c0,5.711-4.63,10.342-10.342,10.342l38.104,0.001c5.711,0,10.342-4.63,10.342-10.342l0.006-240.41  C473.896,78.662,469.07,73.835,463.117,73.835z"/>
<path style="fill:#AF8A83;" d="M364.388,473.452l-216.789-0.005c-2.055,0-3.721-1.666-3.721-3.721V454.58  c0-9.198,7.457-16.654,16.655-16.654l190.924,0.005c9.198,0,16.654,7.457,16.654,16.655v15.145  C368.11,471.786,366.444,473.452,364.388,473.452z"/>
<path style="fill:#21D8DE;" d="M463.117,73.835l-414.226-0.01c-5.954,0-10.779,4.826-10.779,10.779l-0.001,27.256l435.786,0.011  l0.001-27.256C473.896,78.662,469.07,73.835,463.117,73.835z"/>
<path style="fill:#11B9C1;" d="M472.595,79.476c-1.826-3.361-5.386-5.641-9.478-5.641l-38.104-0.001  c5.953,0,10.779,4.827,10.779,10.779l-0.001,27.256l38.104,0.001l0.001-27.256C473.896,82.754,473.424,81.004,472.595,79.476z"/>
<path style="fill:#927167;" d="M351.456,437.931l-21.45-0.001l-0.001,35.521l34.381,0.001c2.055,0,3.721-1.666,3.721-3.721v-15.145  C368.11,445.388,360.654,437.931,351.456,437.931z"/>
<g>
	<path style="fill:#61AFF6;" d="M187.438,164.55c-2.821-2.893-7.452-2.951-10.345-0.128l-54.069,52.74   c-1.411,1.377-2.207,3.264-2.207,5.236c0,1.972,0.797,3.86,2.207,5.236l54.069,52.741c1.423,1.388,3.266,2.079,5.107,2.079   c1.903,0,3.805-0.737,5.237-2.207c2.821-2.892,2.763-7.523-0.128-10.345l-48.701-47.504l48.701-47.503   C190.201,172.073,190.259,167.442,187.438,164.55z"/>
	<path style="fill:#61AFF6;" d="M325.368,164.421c-2.895-2.822-7.526-2.763-10.345,0.129c-2.821,2.893-2.763,7.523,0.128,10.345   l48.702,47.503l-48.702,47.503c-2.892,2.822-2.949,7.453-0.128,10.345c1.434,1.47,3.335,2.207,5.237,2.207   c1.841,0,3.684-0.691,5.107-2.078l54.07-52.741c1.411-1.377,2.207-3.264,2.207-5.236c0-1.972-0.797-3.86-2.207-5.236   L325.368,164.421z"/>
	<path style="fill:#61AFF6;" d="M287.94,141.539c-3.772-1.461-8.006,0.414-9.463,4.181l-60.225,155.569   c-1.458,3.768,0.414,8.004,4.18,9.463c0.869,0.337,1.761,0.495,2.639,0.495c2.934,0,5.701-1.777,6.824-4.676l60.225-155.569   C293.578,147.234,291.706,142.997,287.94,141.539z"/>
</g>
<g>
</g>
<g>
</g>
<g>
</g>
<g>
</g>
<g>
</g>
<g>
</g>
<g>
</g>
<g>
</g>
<g>
</g>
<g>
</g>
<g>
</g>
<g>
</g>
<g>
</g>
<g>
</g>
<g>
</g>
</svg>
