<?xml version="1.0" encoding="iso-8859-1"?>
<!-- Generator: Adobe Illustrator 19.0.0, SVG Export Plug-In . SVG Version: 6.00 Build 0)  -->
<svg xmlns="http://www.w3.org/2000/svg" xmlns:xlink="http://www.w3.org/1999/xlink" version="1.1" id="Capa_1" x="0px" y="0px" viewBox="0 0 512 512" style="enable-background:new 0 0 512 512;" xml:space="preserve">
<polygon style="fill:#FF4C4C;" points="324.846,442.938 187.154,442.938 202.606,391.405 309.394,391.405 "/>
<polygon style="fill:#F33939;" points="309.394,391.405 273.108,391.405 288.56,442.938 324.846,442.938 "/>
<path style="fill:#FFB124;" d="M480.517,396.413H31.483C14.096,396.413,0,382.318,0,364.93V70.033  C0,52.645,14.096,38.55,31.483,38.55h449.033c17.388,0,31.483,14.096,31.483,31.483V364.93  C512,382.318,497.904,396.413,480.517,396.413z"/>
<path style="fill:#FF901E;" d="M480.517,38.549h-38.09c17.388,0,31.483,14.096,31.483,31.483V364.93  c0,17.388-14.096,31.484-31.483,31.484h38.09c17.388,0,31.483-14.096,31.483-31.484V70.033  C512,52.645,497.904,38.549,480.517,38.549z"/>
<path style="fill:#FFFCFD;" d="M473.91,325.026V84.597c0-5.954-4.827-10.78-10.78-10.78H48.87c-5.954,0-10.78,4.827-10.78,10.78  v240.429c0,5.712,4.63,10.342,10.342,10.342h415.136C469.28,335.368,473.91,330.738,473.91,325.026z"/>
<path style="fill:#E6E6E6;" d="M463.13,73.817h-38.042c5.954,0,10.78,4.827,10.78,10.78v240.429c0,5.712-4.631,10.342-10.342,10.342  h38.042c5.712,0,10.342-4.631,10.342-10.342V84.597C473.91,78.643,469.084,73.817,463.13,73.817z"/>
<path style="fill:#AF8A83;" d="M362.996,473.451H149.004c-2.829,0-5.122-2.293-5.122-5.122v-13.745  c0-9.198,7.456-16.654,16.654-16.654h190.927c9.198,0,16.654,7.456,16.654,16.654v13.745  C368.118,471.158,365.825,473.451,362.996,473.451z"/>
<g>
	<path style="fill:#61AFF6;" d="M143.131,183.574H79.918c-6.501,0-11.771-5.27-11.771-11.771v-45.175   c0-6.501,5.27-11.771,11.771-11.771h63.213c6.501,0,11.771,5.27,11.771,11.771v45.175   C154.901,178.304,149.632,183.574,143.131,183.574z"/>
	<path style="fill:#61AFF6;" d="M143.131,291.293H79.918c-6.501,0-11.771-5.27-11.771-11.771v-45.175   c0-6.501,5.27-11.771,11.771-11.771h63.213c6.501,0,11.771,5.27,11.771,11.771v45.175   C154.901,286.023,149.632,291.293,143.131,291.293z"/>
</g>
<path style="fill:#927167;" d="M351.463,437.93h-21.388v35.521h32.92c2.829,0,5.122-2.293,5.122-5.122v-13.745  C368.118,445.386,360.661,437.93,351.463,437.93z"/>
<g>
	<path style="fill:#2D5872;" d="M195.765,175.867h221.67c4.025,0,7.287-3.262,7.287-7.287c0-4.024-3.262-7.287-7.287-7.287h-221.67   c-4.025,0-7.287,3.262-7.287,7.287C188.478,172.605,191.74,175.867,195.765,175.867z"/>
	<path style="fill:#2D5872;" d="M195.765,245.119h221.67c4.025,0,7.287-3.262,7.287-7.287c0-4.024-3.262-7.287-7.287-7.287h-221.67   c-4.025,0-7.287,3.262-7.287,7.287C188.478,241.856,191.74,245.119,195.765,245.119z"/>
	<path style="fill:#2D5872;" d="M195.765,281.448h221.67c4.025,0,7.287-3.262,7.287-7.287s-3.262-7.287-7.287-7.287h-221.67   c-4.025,0-7.287,3.262-7.287,7.287S191.74,281.448,195.765,281.448z"/>
	<path style="fill:#2D5872;" d="M195.765,139.538h221.67c4.025,0,7.287-3.262,7.287-7.287c0-4.024-3.262-7.287-7.287-7.287h-221.67   c-4.025,0-7.287,3.262-7.287,7.287C188.478,136.275,191.74,139.538,195.765,139.538z"/>
</g>
<g>
</g>
<g>
</g>
<g>
</g>
<g>
</g>
<g>
</g>
<g>
</g>
<g>
</g>
<g>
</g>
<g>
</g>
<g>
</g>
<g>
</g>
<g>
</g>
<g>
</g>
<g>
</g>
<g>
</g>
</svg>
